<svg width="70" height="70" viewBox="0 0 70 70" fill="none" xmlns="http://www.w3.org/2000/svg">
<path d="M26.25 8.75H11.6667C10.0558 8.75 8.75 10.0558 8.75 11.6667V26.25C8.75 27.8608 10.0558 29.1667 11.6667 29.1667H26.25C27.8608 29.1667 29.1667 27.8608 29.1667 26.25V11.6667C29.1667 10.0558 27.8608 8.75 26.25 8.75Z" stroke="#407BA7" stroke-width="5" stroke-linecap="round" stroke-linejoin="round"/>
<path d="M26.25 40.8333H11.6667C10.0558 40.8333 8.75 42.1392 8.75 43.75V58.3333C8.75 59.9442 10.0558 61.25 11.6667 61.25H26.25C27.8608 61.25 29.1667 59.9442 29.1667 58.3333V43.75C29.1667 42.1392 27.8608 40.8333 26.25 40.8333Z" stroke="#FF002B" stroke-width="5" stroke-linecap="round" stroke-linejoin="round"/>
<path d="M40.8334 11.6667H61.25" stroke="#1D242B" stroke-opacity="0.8" stroke-width="5" stroke-linecap="round" stroke-linejoin="round"/>
<path d="M40.8334 26.25H61.25" stroke="#1D242B" stroke-opacity="0.8" stroke-width="5" stroke-linecap="round" stroke-linejoin="round"/>
<path d="M40.8334 43.75H61.25" stroke="#1D242B" stroke-opacity="0.8" stroke-width="5" stroke-linecap="round" stroke-linejoin="round"/>
<path d="M40.8334 58.3333H61.25" stroke="#1D242B" stroke-opacity="0.8" stroke-width="5" stroke-linecap="round" stroke-linejoin="round"/>
</svg>
